<svg xmlns="http://www.w3.org/2000/svg" xmlns:xlink="http://www.w3.org/1999/xlink" width="323.333" height="406.602" viewBox="0 0 323.333 406.602">
  <defs>
    <clipPath id="clip-path">
      <rect id="Rectangle_489" data-name="Rectangle 489" width="7.774" height="7.772" fill="none"/>
    </clipPath>
  </defs>
  <g id="Group_89" data-name="Group 89" transform="translate(-191.06 -62.062)">
    <rect id="Rectangle_488" data-name="Rectangle 488" width="8.243" height="24.12" transform="translate(386.068 325.439) rotate(-68.918)" fill="#f1f1f1"/>
    <path id="Path_318" data-name="Path 318" d="M387.75,468.583l-177.6.08a18.918,18.918,0,0,1-18.927-18.911L191.06,81.069a18.919,18.919,0,0,1,18.91-18.93l177.6-.077A18.916,18.916,0,0,1,406.5,80.97l.164,368.687a18.921,18.921,0,0,1-18.911,18.927" transform="translate(0 0)" fill="#221e1d"/>
    <path id="Path_319" data-name="Path 319" d="M387.259,67.46l-53.535.026a4.3,4.3,0,0,0-4.3,4.3,4.305,4.305,0,0,1-4.3,4.306l-59.69.027a4.3,4.3,0,0,1-4.306-4.3,4.3,4.3,0,0,0-4.3-4.3l-53.537.022a7.311,7.311,0,0,0-7.307,7.314l.169,373.418a7.31,7.31,0,0,0,7.314,7.308l183.973-.082a7.31,7.31,0,0,0,7.3-7.315L394.574,74.77a7.314,7.314,0,0,0-7.315-7.31" transform="translate(3.5 3.841)" fill="#f1f1f1"/>
    <g id="Group_82" data-name="Group 82" transform="translate(275.73 67.465)" opacity="0.3">
      <g id="Group_81" data-name="Group 81">
        <g id="Group_80" data-name="Group 80" clip-path="url(#clip-path)">
          <path id="Path_320" data-name="Path 320" d="M248.3,69.1a3.887,3.887,0,1,1-3.889-3.885A3.888,3.888,0,0,1,248.3,69.1" transform="translate(-240.529 -65.219)" fill="#f1f1f1"/>
        </g>
      </g>
    </g>
    <g id="Group_85" data-name="Group 85" transform="translate(286.835 67.46)" opacity="0.3">
      <g id="Group_84" data-name="Group 84">
        <g id="Group_83" data-name="Group 83" clip-path="url(#clip-path)">
          <path id="Path_321" data-name="Path 321" d="M254.791,69.1a3.887,3.887,0,1,1-3.889-3.885,3.886,3.886,0,0,1,3.889,3.885" transform="translate(-247.017 -65.216)" fill="#f1f1f1"/>
        </g>
      </g>
    </g>
    <g id="Group_88" data-name="Group 88" transform="translate(314.042 67.448)" opacity="0.3">
      <g id="Group_87" data-name="Group 87">
        <g id="Group_86" data-name="Group 86" clip-path="url(#clip-path)">
          <path id="Path_322" data-name="Path 322" d="M270.687,69.094a3.887,3.887,0,1,1-3.889-3.885,3.889,3.889,0,0,1,3.889,3.885" transform="translate(-262.913 -65.209)" fill="#f1f1f1"/>
        </g>
      </g>
    </g>
    <rect id="Rectangle_492" data-name="Rectangle 492" width="198.595" height="306.498" transform="translate(199.567 121.037)" fill="#bfbfab"/>
    <line id="Line_11" data-name="Line 11" x2="0.137" y2="221.671" transform="translate(245.491 121.061)" fill="none" stroke="#f1f1f1" stroke-width="11.386"/>
    <line id="Line_12" data-name="Line 12" y1="0.068" x2="152.602" transform="translate(245.521 184.569)" fill="none" stroke="#f1f1f1" stroke-width="11.386"/>
    <path id="Path_323" data-name="Path 323" d="M394.617,170.133l-152.6.068-45.992.02" transform="translate(3.532 76.902)" fill="none" stroke="#f1f1f1" stroke-width="11.386"/>
    <path id="Path_324" data-name="Path 324" d="M222.92,265.138l49.14-.023,39.96-40-.025-54.969" transform="translate(22.671 76.913)" fill="none" stroke="#f1f1f1" stroke-width="11.386"/>
    <line id="Line_13" data-name="Line 13" y1="0.029" x2="63.482" transform="translate(334.69 302.004)" fill="none" stroke="#f1f1f1" stroke-width="11.386"/>
    <line id="Line_14" data-name="Line 14" x2="0.038" y2="85.509" transform="translate(294.73 342.029)" fill="none" stroke="#f1f1f1" stroke-width="11.386"/>
    <line id="Line_15" data-name="Line 15" y1="0.047" x2="103.461" transform="translate(294.751 387.842)" fill="none" stroke="#f1f1f1" stroke-width="11.386"/>
    <line id="Line_16" data-name="Line 16" x2="0.028" y2="63.575" transform="translate(314.066 121.03)" fill="none" stroke="#f1f1f1" stroke-width="11.386"/>
    <line id="Line_17" data-name="Line 17" x2="0.028" y2="63.577" transform="translate(350.434 121.015)" fill="none" stroke="#f1f1f1" stroke-width="11.386"/>
    <path id="Path_325" data-name="Path 325" d="M262.422,145.741a15.377,15.377,0,0,0,2.377-8.325,15.681,15.681,0,0,0-16.024-15.365,15.459,15.459,0,0,0-12.513,23.7l10.071,17.633a3.473,3.473,0,0,0,6.033,0Z" transform="translate(30.466 42.68)" fill="#221e1d"/>
    <path id="Path_326" data-name="Path 326" d="M245.508,127.452l-6.253,2.865,0,11.037,4.354,0,0-5.778,3.8,0,0,5.778,4.354,0,0-11.037Z" transform="translate(34.295 46.53)" fill="#f1f1f1"/>
    <path id="Path_327" data-name="Path 327" d="M294.49,261.724a15.4,15.4,0,0,0,2.379-8.325,15.684,15.684,0,0,0-16.027-15.365,15.456,15.456,0,0,0-12.51,23.7L278.4,279.369a3.473,3.473,0,0,0,6.032,0Z" transform="translate(53.285 125.212)" fill="#febc2f"/>
    <path id="Path_328" data-name="Path 328" d="M277.573,243.435l-6.251,2.865,0,11.037,4.354,0,0-5.778,3.8,0,0,5.778,4.354,0,0-11.037Z" transform="translate(57.113 129.062)" fill="#f1f1f1"/>
    <path id="Path_329" data-name="Path 329" d="M242.865,249.856a21.7,21.7,0,0,0,3.353-11.735,22.1,22.1,0,0,0-22.591-21.658,21.793,21.793,0,0,0-17.636,33.412l14.2,24.856a4.895,4.895,0,0,0,8.5,0Z" transform="translate(8.23 109.859)" fill="#221e1d"/>
    <path id="Path_330" data-name="Path 330" d="M219.023,224.076l-8.814,4.039.008,15.559,6.138,0,0-8.146,5.354,0,0,8.146,6.138,0-.007-15.558Z" transform="translate(13.626 115.286)" fill="#f1f1f1"/>
    <path id="Path_331" data-name="Path 331" d="M211.8,92.908,205.5,87.913l6.29-5" transform="translate(10.276 14.838)" fill="none" stroke="#004566" stroke-width="2.009"/>
    <line id="Line_18" data-name="Line 18" y1="0.005" x2="10.826" transform="translate(374.635 97.679)" fill="none" stroke="#004566" stroke-width="2.009"/>
    <line id="Line_19" data-name="Line 19" y1="0.006" x2="10.828" transform="translate(374.636 102.675)" fill="none" stroke="#004566" stroke-width="2.009"/>
    <line id="Line_20" data-name="Line 20" y1="0.005" x2="10.828" transform="translate(374.638 107.673)" fill="none" stroke="#004566" stroke-width="2.009"/>
    <path id="Path_332" data-name="Path 332" d="M235.149,89.438a4.162,4.162,0,0,1-1.392-.656l.614-1.362a4.178,4.178,0,0,0,1.2.592,4.5,4.5,0,0,0,1.386.223,2.221,2.221,0,0,0,1.14-.229.691.691,0,0,0,.368-.611.586.586,0,0,0-.217-.464,1.662,1.662,0,0,0-.56-.294c-.228-.074-.534-.156-.923-.246a12.56,12.56,0,0,1-1.465-.424,2.379,2.379,0,0,1-.977-.681,1.839,1.839,0,0,1-.409-1.251,2.184,2.184,0,0,1,.368-1.236,2.485,2.485,0,0,1,1.113-.878,4.51,4.51,0,0,1,1.816-.325,5.993,5.993,0,0,1,1.465.178,4.344,4.344,0,0,1,1.253.515l-.56,1.374a4.373,4.373,0,0,0-2.169-.616,2.056,2.056,0,0,0-1.123.246.754.754,0,0,0-.363.65.631.631,0,0,0,.419.6,6.438,6.438,0,0,0,1.28.387,12.556,12.556,0,0,1,1.465.424,2.417,2.417,0,0,1,.977.669,1.8,1.8,0,0,1,.409,1.241,2.147,2.147,0,0,1-.375,1.226,2.516,2.516,0,0,1-1.123.876,4.548,4.548,0,0,1-1.821.325,6.471,6.471,0,0,1-1.8-.25" transform="translate(30.382 13.899)" fill="#0d7197"/>
    <path id="Path_333" data-name="Path 333" d="M244.344,88.041l0,1.453-6.061,0,0-7.827,5.915,0v1.453l-4.115,0,0,1.7,3.634,0V86.23l-3.634,0v1.809Z" transform="translate(33.602 13.952)" fill="#0d7197"/>
    <path id="Path_334" data-name="Path 334" d="M248.246,87.818h-3.632L243.92,89.5l-1.855,0,3.486-7.827,1.787,0,3.5,7.825h-1.9Zm-.57-1.376-1.243-3-1.237,3Z" transform="translate(36.294 13.951)" fill="#0d7197"/>
    <path id="Path_335" data-name="Path 335" d="M252.658,89.49l-1.511-2.179h-1.665l0,2.181-1.813,0,0-7.825,3.387,0a4.347,4.347,0,0,1,1.806.346,2.581,2.581,0,0,1,1.593,2.49,2.546,2.546,0,0,1-1.607,2.473L254.6,89.49Zm-.462-6a1.9,1.9,0,0,0-1.241-.351H249.48v2.73l1.475,0a1.892,1.892,0,0,0,1.241-.358,1.413,1.413,0,0,0,0-2.02" transform="translate(40.281 13.95)" fill="#0d7197"/>
    <path id="Path_336" data-name="Path 336" d="M254.257,89.16a3.9,3.9,0,0,1-1.522-1.441,4.2,4.2,0,0,1,0-4.171,3.9,3.9,0,0,1,1.522-1.443,4.846,4.846,0,0,1,4.012-.163,3.685,3.685,0,0,1,1.381,1.027l-1.162,1.075a2.5,2.5,0,0,0-1.968-.917,2.622,2.622,0,0,0-1.3.32,2.285,2.285,0,0,0-.888.888,2.809,2.809,0,0,0,0,2.595,2.277,2.277,0,0,0,.89.888,2.61,2.61,0,0,0,1.3.318,2.49,2.49,0,0,0,1.968-.929l1.164,1.073a3.651,3.651,0,0,1-1.386,1.041,4.613,4.613,0,0,1-1.845.358,4.486,4.486,0,0,1-2.163-.519" transform="translate(43.493 13.892)" fill="#0d7197"/>
    <path id="Path_337" data-name="Path 337" d="M264.431,81.66l.005,7.826-1.812,0,0-3.209-3.555,0,0,3.209h-1.81l0-7.826h1.808l0,3.085,3.555,0,0-3.085Z" transform="translate(47.104 13.946)" fill="#0d7197"/>
    <rect id="Rectangle_493" data-name="Rectangle 493" width="1.811" height="7.826" transform="translate(313.395 95.605)" fill="#0d7197"/>
    <path id="Path_338" data-name="Path 338" d="M271.853,81.657l0,7.827h-1.487l-3.9-4.749,0,4.751h-1.788l0-7.825,1.5,0,3.893,4.751,0-4.753Z" transform="translate(52.384 13.944)" fill="#0d7197"/>
    <path id="Path_339" data-name="Path 339" d="M275.447,85.5l1.655,0v3.175a4.609,4.609,0,0,1-1.475.738,5.73,5.73,0,0,1-1.686.26,4.564,4.564,0,0,1-2.193-.52,3.831,3.831,0,0,1-1.525-1.441,4.2,4.2,0,0,1-.005-4.169,3.889,3.889,0,0,1,1.539-1.445,4.666,4.666,0,0,1,2.213-.519,4.843,4.843,0,0,1,1.866.344,3.7,3.7,0,0,1,1.41,1.006L276.084,84a2.688,2.688,0,0,0-2.025-.883,2.775,2.775,0,0,0-1.33.313,2.238,2.238,0,0,0-.9.885,2.752,2.752,0,0,0,0,2.605,2.293,2.293,0,0,0,.9.888,2.665,2.665,0,0,0,1.313.315,2.94,2.94,0,0,0,1.407-.334Z" transform="translate(55.935 13.887)" fill="#0d7197"/>
    <path id="Path_340" data-name="Path 340" d="M304.261,143.833h13.722l-16.864,22.788L330.7,143.833H431.589a7.831,7.831,0,0,0,7.808-7.808v-22.7a7.831,7.831,0,0,0-7.808-7.808H304.261a7.831,7.831,0,0,0-7.808,7.808v22.7a7.831,7.831,0,0,0,7.808,7.808" transform="translate(74.996 30.92)" fill="#fff"/>
    <path id="Path_341" data-name="Path 341" d="M342.716,110.489l2.325,7.15h7.517l-6.081,4.419,2.322,7.15-6.082-4.419-6.082,4.419,2.323-7.15-6.082-4.419h7.52Z" transform="translate(100.912 34.46)" fill="#fabc4f"/>
    <path id="Path_342" data-name="Path 342" d="M358.116,110.489l2.322,7.15h7.52l-6.084,4.419,2.325,7.15-6.082-4.419-6.084,4.419,2.325-7.15-6.082-4.419h7.518Z" transform="translate(111.871 34.46)" fill="#fabc4f"/>
    <path id="Path_343" data-name="Path 343" d="M373.515,110.489l2.323,7.15h7.518l-6.082,4.419,2.323,7.15-6.082-4.419-6.082,4.419,2.322-7.15-6.081-4.419h7.517Z" transform="translate(122.829 34.46)" fill="#fabc4f"/>
    <path id="Path_344" data-name="Path 344" d="M311.917,110.489l2.323,7.15h7.518l-6.084,4.419,2.325,7.15-6.083-4.419-6.084,4.419,2.325-7.15-6.082-4.419h7.517Z" transform="translate(78.996 34.46)" fill="#fabc4f"/>
    <path id="Path_345" data-name="Path 345" d="M327.316,110.489l2.323,7.15h7.518l-6.082,4.419,2.322,7.15-6.081-4.419-6.082,4.419,2.322-7.15-6.081-4.419h7.518Z" transform="translate(89.954 34.46)" fill="#fabc4f"/>
  </g>
</svg>
