<svg xmlns="http://www.w3.org/2000/svg" width="364" height="370.655" viewBox="0 0 364 370.655">
  <g id="Group_68" data-name="Group 68" transform="translate(-45.345 -153.454)">
    <path id="Path_180" data-name="Path 180" d="M330.366,416.517H84.717a28.389,28.389,0,0,1-28.3-28.3V234.978a28.386,28.386,0,0,1,28.3-28.3H330.366a28.386,28.386,0,0,1,28.3,28.3V388.213a28.389,28.389,0,0,1-28.3,28.3" transform="translate(19.802 95.222)" fill="#221e1d"/>
    <path id="Path_181" data-name="Path 181" d="M45.345,281.912v1.955A10.444,10.444,0,0,0,55.76,294.282H398.927a10.446,10.446,0,0,0,10.417-10.415v-1.955Z" transform="translate(0 229.827)" fill="#221e1d"/>
    <rect id="Rectangle_245" data-name="Rectangle 245" width="260.449" height="173.834" transform="translate(97.683 320.871)" fill="#b5c9d5"/>
    <path id="Path_182" data-name="Path 182" d="M151.186,289.7h-45.63a4.892,4.892,0,0,1-4.892-4.881v-1.266h55.414v1.266a4.892,4.892,0,0,1-4.892,4.881M101.518,284.4v.413a4.036,4.036,0,0,0,4.039,4.025h45.63a4.035,4.035,0,0,0,4.039-4.025V284.4Z" transform="translate(98.972 232.756)" fill="#4f678f"/>
    <rect id="Rectangle_246" data-name="Rectangle 246" width="21.579" height="6.289" transform="translate(170.063 236.031)" fill="#fff"/>
    <rect id="Rectangle_247" data-name="Rectangle 247" width="21.579" height="6.289" transform="translate(208.132 236.031)" fill="#fff"/>
    <rect id="Rectangle_248" data-name="Rectangle 248" width="21.58" height="6.289" transform="translate(255.22 236.031)" fill="#fff"/>
    <rect id="Rectangle_249" data-name="Rectangle 249" width="137.708" height="237.24" transform="translate(159.894 244.96)" fill="#fff"/>
    <rect id="Rectangle_250" data-name="Rectangle 250" width="148.18" height="11.091" transform="translate(154.657 482.203)" fill="#9bd5d7"/>
    <rect id="Rectangle_251" data-name="Rectangle 251" width="78.765" height="3.699" transform="translate(189.364 489.595)" fill="#fff"/>
    <rect id="Rectangle_252" data-name="Rectangle 252" width="67.075" height="3.696" transform="translate(195.21 485.899)" fill="#fff"/>
    <rect id="Rectangle_253" data-name="Rectangle 253" width="52.666" height="3.699" transform="translate(202.415 482.2)" fill="#fff"/>
    <rect id="Rectangle_254" data-name="Rectangle 254" width="52.666" height="0.744" transform="translate(202.415 485.156)" fill="#93aabe"/>
    <rect id="Rectangle_255" data-name="Rectangle 255" width="67.075" height="0.741" transform="translate(195.21 488.854)" fill="#93aabe"/>
    <rect id="Rectangle_256" data-name="Rectangle 256" width="57.557" height="37.932" transform="translate(240.045 405.138)" fill="#febc2f"/>
    <rect id="Rectangle_257" data-name="Rectangle 257" width="1.264" height="37.932" transform="translate(240.045 405.138)" fill="#9c3242"/>
    <rect id="Rectangle_258" data-name="Rectangle 258" width="13.978" height="27.377" transform="translate(221.718 454.826)" fill="#4d5c75"/>
    <rect id="Rectangle_259" data-name="Rectangle 259" width="24.045" height="28.948" transform="translate(253.29 414.123)" fill="#fff"/>
    <rect id="Rectangle_260" data-name="Rectangle 260" width="10.036" height="25.893" transform="translate(266.009 415.696)" fill="#4d5c75"/>
    <rect id="Rectangle_261" data-name="Rectangle 261" width="10.036" height="25.893" transform="translate(254.509 415.696)" fill="#4d5c75"/>
    <path id="Path_183" data-name="Path 183" d="M224.123,259.717,86.415,262.222v-3.168H224.123Z" transform="translate(73.479 188.932)" fill="#93aabe"/>
    <path id="Path_184" data-name="Path 184" d="M166.567,245.235l-80.152,2.507v-3.168h80.152Z" transform="translate(73.479 163.025)" fill="#93aabe"/>
    <path id="Path_185" data-name="Path 185" d="M172.709,245.76l-57.557,3.428v-4.614h57.557Z" transform="translate(124.893 163.024)" fill="#221e1d"/>
    <rect id="Rectangle_262" data-name="Rectangle 262" width="2.184" height="5.908" transform="translate(245.974 437.163)" fill="#fff"/>
    <rect id="Rectangle_263" data-name="Rectangle 263" width="2.184" height="5.908" transform="translate(271.241 437.163)" fill="#fff"/>
    <rect id="Rectangle_264" data-name="Rectangle 264" width="2.184" height="5.908" transform="translate(296.511 437.163)" fill="#fff"/>
    <rect id="Rectangle_265" data-name="Rectangle 265" width="2.183" height="5.908" transform="translate(283.877 437.163)" fill="#fff"/>
    <rect id="Rectangle_266" data-name="Rectangle 266" width="2.183" height="5.908" transform="translate(258.61 437.163)" fill="#fff"/>
    <rect id="Rectangle_267" data-name="Rectangle 267" width="2.184" height="1.18" transform="translate(245.974 437.163)" fill="#93aabe"/>
    <rect id="Rectangle_268" data-name="Rectangle 268" width="2.184" height="1.18" transform="translate(271.241 437.163)" fill="#93aabe"/>
    <rect id="Rectangle_269" data-name="Rectangle 269" width="2.184" height="1.18" transform="translate(296.511 437.163)" fill="#93aabe"/>
    <rect id="Rectangle_270" data-name="Rectangle 270" width="2.183" height="1.18" transform="translate(283.877 437.163)" fill="#93aabe"/>
    <rect id="Rectangle_271" data-name="Rectangle 271" width="2.183" height="1.18" transform="translate(258.61 437.163)" fill="#93aabe"/>
    <rect id="Rectangle_272" data-name="Rectangle 272" width="144.848" height="4.916" transform="translate(156.324 443.071)" fill="#243854"/>
    <rect id="Rectangle_273" data-name="Rectangle 273" width="61.126" height="1.068" transform="translate(240.045 436.095)" fill="#fff"/>
    <rect id="Rectangle_274" data-name="Rectangle 274" width="6.8" height="34.216" transform="translate(204.291 447.987)" fill="#221e1d"/>
    <rect id="Rectangle_275" data-name="Rectangle 275" width="6.802" height="34.216" transform="translate(246.402 447.987)" fill="#221e1d"/>
    <rect id="Rectangle_276" data-name="Rectangle 276" width="6.8" height="1.585" transform="translate(204.291 447.987)" fill="#9c3242"/>
    <rect id="Rectangle_277" data-name="Rectangle 277" width="6.802" height="1.585" transform="translate(246.402 447.987)" fill="#9c3242"/>
    <rect id="Rectangle_278" data-name="Rectangle 278" width="4.284" height="15.117" transform="translate(168.951 462.145)" fill="#4d5c75"/>
    <rect id="Rectangle_279" data-name="Rectangle 279" width="4.284" height="5.137" transform="translate(168.951 455.709)" fill="#4d5c75"/>
    <rect id="Rectangle_280" data-name="Rectangle 280" width="14.223" height="15.117" transform="translate(174.111 462.145)" fill="#4d5c75"/>
    <rect id="Rectangle_281" data-name="Rectangle 281" width="14.223" height="5.137" transform="translate(174.111 455.709)" fill="#4d5c75"/>
    <rect id="Rectangle_282" data-name="Rectangle 282" width="4.284" height="15.117" transform="translate(189.207 462.145)" fill="#4d5c75"/>
    <rect id="Rectangle_283" data-name="Rectangle 283" width="4.284" height="5.137" transform="translate(189.207 455.709)" fill="#4d5c75"/>
    <path id="Path_186" data-name="Path 186" d="M89.721,261.507h-.684v24.484h27.291v-.736H89.721Z" transform="translate(78.171 193.319)" fill="#93aabe"/>
    <rect id="Rectangle_284" data-name="Rectangle 284" width="4.284" height="15.118" transform="translate(168.951 421.998)" fill="#4d5c75"/>
    <rect id="Rectangle_285" data-name="Rectangle 285" width="4.284" height="5.137" transform="translate(168.951 415.559)" fill="#4d5c75"/>
    <rect id="Rectangle_286" data-name="Rectangle 286" width="14.223" height="15.118" transform="translate(174.111 421.998)" fill="#4d5c75"/>
    <rect id="Rectangle_287" data-name="Rectangle 287" width="14.223" height="5.137" transform="translate(174.111 415.559)" fill="#4d5c75"/>
    <rect id="Rectangle_288" data-name="Rectangle 288" width="4.284" height="15.118" transform="translate(189.207 421.998)" fill="#4d5c75"/>
    <rect id="Rectangle_289" data-name="Rectangle 289" width="4.284" height="5.137" transform="translate(189.207 415.559)" fill="#4d5c75"/>
    <path id="Path_187" data-name="Path 187" d="M89.721,247.112h-.684V271.6h27.291v-.735H89.721Z" transform="translate(78.171 167.565)" fill="#93aabe"/>
    <rect id="Rectangle_290" data-name="Rectangle 290" width="57.557" height="37.932" transform="translate(240.045 364.749)" fill="#febc2f"/>
    <rect id="Rectangle_291" data-name="Rectangle 291" width="1.264" height="37.932" transform="translate(240.045 364.749)" fill="#9c3242"/>
    <rect id="Rectangle_292" data-name="Rectangle 292" width="144.848" height="4.916" transform="translate(156.324 362.292)" fill="#243854"/>
    <rect id="Rectangle_293" data-name="Rectangle 293" width="24.045" height="28.948" transform="translate(253.29 373.733)" fill="#fff"/>
    <rect id="Rectangle_294" data-name="Rectangle 294" width="10.036" height="25.893" transform="translate(266.009 375.307)" fill="#4d5c75"/>
    <rect id="Rectangle_295" data-name="Rectangle 295" width="10.036" height="25.893" transform="translate(254.509 375.307)" fill="#4d5c75"/>
    <path id="Path_188" data-name="Path 188" d="M166.567,230.755l-80.152,2.507v-3.169h80.152Z" transform="translate(73.479 137.116)" fill="#93aabe"/>
    <path id="Path_189" data-name="Path 189" d="M172.709,231.278l-57.557,3.428v-4.613h57.557Z" transform="translate(124.893 137.116)" fill="#221e1d"/>
    <rect id="Rectangle_296" data-name="Rectangle 296" width="2.184" height="5.908" transform="translate(245.974 396.774)" fill="#fff"/>
    <rect id="Rectangle_297" data-name="Rectangle 297" width="2.184" height="5.908" transform="translate(271.241 396.774)" fill="#fff"/>
    <rect id="Rectangle_298" data-name="Rectangle 298" width="2.184" height="5.908" transform="translate(296.511 396.774)" fill="#fff"/>
    <rect id="Rectangle_299" data-name="Rectangle 299" width="2.183" height="5.908" transform="translate(283.877 396.774)" fill="#fff"/>
    <rect id="Rectangle_300" data-name="Rectangle 300" width="2.183" height="5.908" transform="translate(258.61 396.774)" fill="#fff"/>
    <rect id="Rectangle_301" data-name="Rectangle 301" width="2.184" height="1.181" transform="translate(245.974 396.774)" fill="#93aabe"/>
    <rect id="Rectangle_302" data-name="Rectangle 302" width="2.184" height="1.181" transform="translate(271.241 396.774)" fill="#93aabe"/>
    <rect id="Rectangle_303" data-name="Rectangle 303" width="2.184" height="1.181" transform="translate(296.511 396.774)" fill="#93aabe"/>
    <rect id="Rectangle_304" data-name="Rectangle 304" width="2.183" height="1.181" transform="translate(283.877 396.774)" fill="#93aabe"/>
    <rect id="Rectangle_305" data-name="Rectangle 305" width="2.183" height="1.181" transform="translate(258.61 396.774)" fill="#93aabe"/>
    <rect id="Rectangle_306" data-name="Rectangle 306" width="61.126" height="1.068" transform="translate(240.045 395.706)" fill="#fff"/>
    <rect id="Rectangle_307" data-name="Rectangle 307" width="4.284" height="15.117" transform="translate(168.951 381.609)" fill="#4d5c75"/>
    <rect id="Rectangle_308" data-name="Rectangle 308" width="4.284" height="5.137" transform="translate(168.951 375.173)" fill="#4d5c75"/>
    <rect id="Rectangle_309" data-name="Rectangle 309" width="14.223" height="15.117" transform="translate(174.111 381.609)" fill="#4d5c75"/>
    <rect id="Rectangle_310" data-name="Rectangle 310" width="14.223" height="5.137" transform="translate(174.111 375.173)" fill="#4d5c75"/>
    <rect id="Rectangle_311" data-name="Rectangle 311" width="4.284" height="15.117" transform="translate(189.207 381.609)" fill="#4d5c75"/>
    <rect id="Rectangle_312" data-name="Rectangle 312" width="4.284" height="5.137" transform="translate(189.207 375.173)" fill="#4d5c75"/>
    <path id="Path_190" data-name="Path 190" d="M89.721,232.631h-.684v24.485h27.291v-.737H89.721Z" transform="translate(78.171 141.657)" fill="#93aabe"/>
    <rect id="Rectangle_313" data-name="Rectangle 313" width="57.557" height="37.932" transform="translate(240.045 324.363)" fill="#febc2f"/>
    <rect id="Rectangle_314" data-name="Rectangle 314" width="1.264" height="37.932" transform="translate(240.045 324.363)" fill="#9c3242"/>
    <rect id="Rectangle_315" data-name="Rectangle 315" width="144.848" height="4.916" transform="translate(156.324 321.903)" fill="#243854"/>
    <rect id="Rectangle_316" data-name="Rectangle 316" width="24.045" height="28.948" transform="translate(253.29 333.347)" fill="#fff"/>
    <rect id="Rectangle_317" data-name="Rectangle 317" width="10.036" height="25.893" transform="translate(266.009 334.917)" fill="#4d5c75"/>
    <rect id="Rectangle_318" data-name="Rectangle 318" width="10.036" height="25.893" transform="translate(254.509 334.917)" fill="#4d5c75"/>
    <path id="Path_191" data-name="Path 191" d="M166.567,216.274l-80.152,2.507v-3.169h80.152Z" transform="translate(73.479 111.208)" fill="#93aabe"/>
    <path id="Path_192" data-name="Path 192" d="M172.709,216.8l-57.557,3.428v-4.614h57.557Z" transform="translate(124.893 111.208)" fill="#221e1d"/>
    <rect id="Rectangle_319" data-name="Rectangle 319" width="2.184" height="5.908" transform="translate(245.974 356.387)" fill="#fff"/>
    <rect id="Rectangle_320" data-name="Rectangle 320" width="2.184" height="5.908" transform="translate(271.241 356.387)" fill="#fff"/>
    <rect id="Rectangle_321" data-name="Rectangle 321" width="2.184" height="5.908" transform="translate(296.511 356.387)" fill="#fff"/>
    <rect id="Rectangle_322" data-name="Rectangle 322" width="2.183" height="5.908" transform="translate(283.877 356.387)" fill="#fff"/>
    <rect id="Rectangle_323" data-name="Rectangle 323" width="2.183" height="5.908" transform="translate(258.61 356.387)" fill="#fff"/>
    <rect id="Rectangle_324" data-name="Rectangle 324" width="2.184" height="1.18" transform="translate(245.974 356.385)" fill="#93aabe"/>
    <rect id="Rectangle_325" data-name="Rectangle 325" width="2.184" height="1.18" transform="translate(271.241 356.385)" fill="#93aabe"/>
    <rect id="Rectangle_326" data-name="Rectangle 326" width="2.184" height="1.18" transform="translate(296.511 356.385)" fill="#93aabe"/>
    <rect id="Rectangle_327" data-name="Rectangle 327" width="2.183" height="1.18" transform="translate(283.877 356.385)" fill="#93aabe"/>
    <rect id="Rectangle_328" data-name="Rectangle 328" width="2.183" height="1.18" transform="translate(258.61 356.385)" fill="#93aabe"/>
    <rect id="Rectangle_329" data-name="Rectangle 329" width="61.126" height="1.068" transform="translate(240.045 355.317)" fill="#fff"/>
    <rect id="Rectangle_330" data-name="Rectangle 330" width="4.284" height="15.117" transform="translate(168.951 341.22)" fill="#4d5c75"/>
    <rect id="Rectangle_331" data-name="Rectangle 331" width="4.284" height="5.138" transform="translate(168.951 334.783)" fill="#4d5c75"/>
    <rect id="Rectangle_332" data-name="Rectangle 332" width="14.223" height="15.117" transform="translate(174.111 341.22)" fill="#4d5c75"/>
    <rect id="Rectangle_333" data-name="Rectangle 333" width="14.223" height="5.138" transform="translate(174.111 334.783)" fill="#4d5c75"/>
    <rect id="Rectangle_334" data-name="Rectangle 334" width="4.284" height="15.117" transform="translate(189.207 341.22)" fill="#4d5c75"/>
    <rect id="Rectangle_335" data-name="Rectangle 335" width="4.284" height="5.138" transform="translate(189.207 334.783)" fill="#4d5c75"/>
    <path id="Path_193" data-name="Path 193" d="M89.721,218.15h-.684v24.485h27.291V241.9H89.721Z" transform="translate(78.171 115.749)" fill="#93aabe"/>
    <rect id="Rectangle_336" data-name="Rectangle 336" width="4.283" height="15.118" transform="translate(206.652 421.998)" fill="#4d5c75"/>
    <rect id="Rectangle_337" data-name="Rectangle 337" width="4.283" height="5.137" transform="translate(206.652 415.559)" fill="#4d5c75"/>
    <rect id="Rectangle_338" data-name="Rectangle 338" width="14.225" height="15.118" transform="translate(211.81 421.998)" fill="#4d5c75"/>
    <rect id="Rectangle_339" data-name="Rectangle 339" width="14.225" height="5.137" transform="translate(211.81 415.559)" fill="#4d5c75"/>
    <rect id="Rectangle_340" data-name="Rectangle 340" width="4.284" height="15.118" transform="translate(226.908 421.998)" fill="#4d5c75"/>
    <rect id="Rectangle_341" data-name="Rectangle 341" width="4.284" height="5.137" transform="translate(226.908 415.559)" fill="#4d5c75"/>
    <path id="Path_194" data-name="Path 194" d="M103.238,247.112h-.684V271.6h27.289v-.735H103.238Z" transform="translate(102.354 167.565)" fill="#93aabe"/>
    <rect id="Rectangle_342" data-name="Rectangle 342" width="4.283" height="15.117" transform="translate(206.652 381.609)" fill="#4d5c75"/>
    <rect id="Rectangle_343" data-name="Rectangle 343" width="4.283" height="5.137" transform="translate(206.652 375.173)" fill="#4d5c75"/>
    <rect id="Rectangle_344" data-name="Rectangle 344" width="14.225" height="15.117" transform="translate(211.81 381.609)" fill="#4d5c75"/>
    <rect id="Rectangle_345" data-name="Rectangle 345" width="14.225" height="5.137" transform="translate(211.81 375.173)" fill="#4d5c75"/>
    <rect id="Rectangle_346" data-name="Rectangle 346" width="4.284" height="15.117" transform="translate(226.908 381.609)" fill="#4d5c75"/>
    <rect id="Rectangle_347" data-name="Rectangle 347" width="4.284" height="5.137" transform="translate(226.908 375.173)" fill="#4d5c75"/>
    <path id="Path_195" data-name="Path 195" d="M103.238,232.631h-.684v24.485h27.289v-.737H103.238Z" transform="translate(102.354 141.657)" fill="#93aabe"/>
    <rect id="Rectangle_348" data-name="Rectangle 348" width="4.283" height="15.117" transform="translate(206.652 341.22)" fill="#4d5c75"/>
    <rect id="Rectangle_349" data-name="Rectangle 349" width="4.283" height="5.138" transform="translate(206.652 334.783)" fill="#4d5c75"/>
    <rect id="Rectangle_350" data-name="Rectangle 350" width="14.225" height="15.117" transform="translate(211.81 341.22)" fill="#4d5c75"/>
    <rect id="Rectangle_351" data-name="Rectangle 351" width="14.225" height="5.138" transform="translate(211.81 334.783)" fill="#4d5c75"/>
    <rect id="Rectangle_352" data-name="Rectangle 352" width="4.284" height="15.117" transform="translate(226.908 341.22)" fill="#4d5c75"/>
    <rect id="Rectangle_353" data-name="Rectangle 353" width="4.284" height="5.138" transform="translate(226.908 334.783)" fill="#4d5c75"/>
    <path id="Path_196" data-name="Path 196" d="M103.238,218.15h-.684v24.485h27.289V241.9H103.238Z" transform="translate(102.354 115.749)" fill="#93aabe"/>
    <rect id="Rectangle_354" data-name="Rectangle 354" width="57.557" height="37.932" transform="translate(240.045 283.974)" fill="#febc2f"/>
    <rect id="Rectangle_355" data-name="Rectangle 355" width="1.264" height="37.932" transform="translate(240.045 283.974)" fill="#9c3242"/>
    <rect id="Rectangle_356" data-name="Rectangle 356" width="144.848" height="4.916" transform="translate(156.324 281.514)" fill="#243854"/>
    <rect id="Rectangle_357" data-name="Rectangle 357" width="24.045" height="28.948" transform="translate(253.29 292.958)" fill="#fff"/>
    <rect id="Rectangle_358" data-name="Rectangle 358" width="10.036" height="25.893" transform="translate(266.009 294.528)" fill="#4d5c75"/>
    <rect id="Rectangle_359" data-name="Rectangle 359" width="10.036" height="25.893" transform="translate(254.509 294.528)" fill="#4d5c75"/>
    <path id="Path_197" data-name="Path 197" d="M166.567,201.793,86.415,204.3v-3.169h80.152Z" transform="translate(73.479 85.3)" fill="#93aabe"/>
    <path id="Path_198" data-name="Path 198" d="M172.709,202.316l-57.557,3.429v-4.614h57.557Z" transform="translate(124.893 85.3)" fill="#221e1d"/>
    <rect id="Rectangle_360" data-name="Rectangle 360" width="2.184" height="5.908" transform="translate(245.974 315.998)" fill="#fff"/>
    <rect id="Rectangle_361" data-name="Rectangle 361" width="2.184" height="5.908" transform="translate(271.241 315.998)" fill="#fff"/>
    <rect id="Rectangle_362" data-name="Rectangle 362" width="2.184" height="5.908" transform="translate(296.511 315.998)" fill="#fff"/>
    <rect id="Rectangle_363" data-name="Rectangle 363" width="2.183" height="5.908" transform="translate(283.877 315.998)" fill="#fff"/>
    <rect id="Rectangle_364" data-name="Rectangle 364" width="2.183" height="5.908" transform="translate(258.61 315.998)" fill="#fff"/>
    <rect id="Rectangle_365" data-name="Rectangle 365" width="2.184" height="1.179" transform="translate(245.974 315.996)" fill="#93aabe"/>
    <rect id="Rectangle_366" data-name="Rectangle 366" width="2.184" height="1.179" transform="translate(271.241 315.996)" fill="#93aabe"/>
    <rect id="Rectangle_367" data-name="Rectangle 367" width="2.184" height="1.179" transform="translate(296.511 315.996)" fill="#93aabe"/>
    <rect id="Rectangle_368" data-name="Rectangle 368" width="2.183" height="1.179" transform="translate(283.877 315.996)" fill="#93aabe"/>
    <rect id="Rectangle_369" data-name="Rectangle 369" width="2.183" height="1.179" transform="translate(258.61 315.996)" fill="#93aabe"/>
    <rect id="Rectangle_370" data-name="Rectangle 370" width="61.126" height="1.068" transform="translate(240.045 314.928)" fill="#fff"/>
    <rect id="Rectangle_371" data-name="Rectangle 371" width="4.284" height="15.117" transform="translate(168.951 300.831)" fill="#4d5c75"/>
    <rect id="Rectangle_372" data-name="Rectangle 372" width="4.284" height="5.138" transform="translate(168.951 294.393)" fill="#4d5c75"/>
    <rect id="Rectangle_373" data-name="Rectangle 373" width="14.223" height="15.117" transform="translate(174.111 300.831)" fill="#4d5c75"/>
    <rect id="Rectangle_374" data-name="Rectangle 374" width="14.223" height="5.138" transform="translate(174.111 294.393)" fill="#4d5c75"/>
    <rect id="Rectangle_375" data-name="Rectangle 375" width="4.284" height="15.117" transform="translate(189.207 300.831)" fill="#4d5c75"/>
    <rect id="Rectangle_376" data-name="Rectangle 376" width="4.284" height="5.138" transform="translate(189.207 294.393)" fill="#4d5c75"/>
    <path id="Path_199" data-name="Path 199" d="M89.721,203.669h-.684v24.485h27.291v-.737H89.721Z" transform="translate(78.171 89.841)" fill="#93aabe"/>
    <rect id="Rectangle_377" data-name="Rectangle 377" width="4.283" height="15.117" transform="translate(206.652 300.831)" fill="#4d5c75"/>
    <rect id="Rectangle_378" data-name="Rectangle 378" width="4.283" height="5.138" transform="translate(206.652 294.393)" fill="#4d5c75"/>
    <rect id="Rectangle_379" data-name="Rectangle 379" width="14.225" height="15.117" transform="translate(211.81 300.831)" fill="#4d5c75"/>
    <rect id="Rectangle_380" data-name="Rectangle 380" width="14.225" height="5.138" transform="translate(211.81 294.393)" fill="#4d5c75"/>
    <rect id="Rectangle_381" data-name="Rectangle 381" width="4.284" height="15.117" transform="translate(226.908 300.831)" fill="#4d5c75"/>
    <rect id="Rectangle_382" data-name="Rectangle 382" width="4.284" height="5.138" transform="translate(226.908 294.393)" fill="#4d5c75"/>
    <path id="Path_200" data-name="Path 200" d="M103.238,203.669h-.684v24.485h27.289v-.737H103.238Z" transform="translate(102.354 89.841)" fill="#93aabe"/>
    <rect id="Rectangle_383" data-name="Rectangle 383" width="57.557" height="37.932" transform="translate(240.045 243.584)" fill="#febc2f"/>
    <rect id="Rectangle_384" data-name="Rectangle 384" width="1.264" height="37.932" transform="translate(240.045 243.584)" fill="#9c3242"/>
    <rect id="Rectangle_385" data-name="Rectangle 385" width="144.848" height="4.916" transform="translate(156.324 241.125)" fill="#243854"/>
    <rect id="Rectangle_386" data-name="Rectangle 386" width="24.045" height="28.948" transform="translate(253.29 252.569)" fill="#fff"/>
    <rect id="Rectangle_387" data-name="Rectangle 387" width="10.036" height="25.893" transform="translate(266.009 254.139)" fill="#4d5c75"/>
    <rect id="Rectangle_388" data-name="Rectangle 388" width="10.036" height="25.893" transform="translate(254.509 254.139)" fill="#4d5c75"/>
    <path id="Path_201" data-name="Path 201" d="M166.567,187.312l-80.152,2.507V186.65h80.152Z" transform="translate(73.479 59.391)" fill="#93aabe"/>
    <path id="Path_202" data-name="Path 202" d="M172.709,187.836l-57.557,3.428V186.65h57.557Z" transform="translate(124.893 59.391)" fill="#221e1d"/>
    <rect id="Rectangle_389" data-name="Rectangle 389" width="2.184" height="5.908" transform="translate(245.974 275.609)" fill="#fff"/>
    <rect id="Rectangle_390" data-name="Rectangle 390" width="2.184" height="5.908" transform="translate(271.241 275.609)" fill="#fff"/>
    <rect id="Rectangle_391" data-name="Rectangle 391" width="2.184" height="5.908" transform="translate(296.511 275.609)" fill="#fff"/>
    <rect id="Rectangle_392" data-name="Rectangle 392" width="2.183" height="5.908" transform="translate(283.877 275.609)" fill="#fff"/>
    <rect id="Rectangle_393" data-name="Rectangle 393" width="2.183" height="5.908" transform="translate(258.61 275.609)" fill="#fff"/>
    <rect id="Rectangle_394" data-name="Rectangle 394" width="2.184" height="1.18" transform="translate(245.974 275.606)" fill="#93aabe"/>
    <rect id="Rectangle_395" data-name="Rectangle 395" width="2.184" height="1.18" transform="translate(271.241 275.606)" fill="#93aabe"/>
    <rect id="Rectangle_396" data-name="Rectangle 396" width="2.184" height="1.18" transform="translate(296.511 275.606)" fill="#93aabe"/>
    <rect id="Rectangle_397" data-name="Rectangle 397" width="2.183" height="1.18" transform="translate(283.877 275.606)" fill="#93aabe"/>
    <rect id="Rectangle_398" data-name="Rectangle 398" width="2.183" height="1.18" transform="translate(258.61 275.606)" fill="#93aabe"/>
    <rect id="Rectangle_399" data-name="Rectangle 399" width="61.126" height="1.068" transform="translate(240.045 274.539)" fill="#fff"/>
    <rect id="Rectangle_400" data-name="Rectangle 400" width="4.284" height="15.117" transform="translate(168.951 260.442)" fill="#4d5c75"/>
    <rect id="Rectangle_401" data-name="Rectangle 401" width="4.284" height="5.138" transform="translate(168.951 254.004)" fill="#4d5c75"/>
    <rect id="Rectangle_402" data-name="Rectangle 402" width="14.223" height="15.117" transform="translate(174.111 260.442)" fill="#4d5c75"/>
    <rect id="Rectangle_403" data-name="Rectangle 403" width="14.223" height="5.138" transform="translate(174.111 254.004)" fill="#4d5c75"/>
    <rect id="Rectangle_404" data-name="Rectangle 404" width="4.284" height="15.117" transform="translate(189.207 260.442)" fill="#4d5c75"/>
    <rect id="Rectangle_405" data-name="Rectangle 405" width="4.284" height="5.138" transform="translate(189.207 254.004)" fill="#4d5c75"/>
    <path id="Path_203" data-name="Path 203" d="M89.721,189.188h-.684v24.485h27.291v-.737H89.721Z" transform="translate(78.171 63.932)" fill="#93aabe"/>
    <rect id="Rectangle_406" data-name="Rectangle 406" width="4.283" height="15.117" transform="translate(206.652 260.442)" fill="#4d5c75"/>
    <rect id="Rectangle_407" data-name="Rectangle 407" width="4.283" height="5.138" transform="translate(206.652 254.004)" fill="#4d5c75"/>
    <rect id="Rectangle_408" data-name="Rectangle 408" width="14.225" height="15.117" transform="translate(211.81 260.442)" fill="#4d5c75"/>
    <rect id="Rectangle_409" data-name="Rectangle 409" width="14.225" height="5.138" transform="translate(211.81 254.004)" fill="#4d5c75"/>
    <rect id="Rectangle_410" data-name="Rectangle 410" width="4.284" height="15.117" transform="translate(226.908 260.442)" fill="#4d5c75"/>
    <rect id="Rectangle_411" data-name="Rectangle 411" width="4.284" height="5.138" transform="translate(226.908 254.004)" fill="#4d5c75"/>
    <path id="Path_204" data-name="Path 204" d="M103.238,189.188h-.684v24.485h27.289v-.737H103.238Z" transform="translate(102.354 63.932)" fill="#93aabe"/>
    <rect id="Rectangle_412" data-name="Rectangle 412" width="5.059" height="15.117" transform="translate(261.586 462.145)" fill="#4d5c75"/>
    <rect id="Rectangle_413" data-name="Rectangle 413" width="5.059" height="5.137" transform="translate(261.586 455.709)" fill="#4d5c75"/>
    <rect id="Rectangle_414" data-name="Rectangle 414" width="16.801" height="15.117" transform="translate(267.677 462.145)" fill="#4d5c75"/>
    <rect id="Rectangle_415" data-name="Rectangle 415" width="16.801" height="5.137" transform="translate(267.677 455.709)" fill="#4d5c75"/>
    <rect id="Rectangle_416" data-name="Rectangle 416" width="5.059" height="15.117" transform="translate(285.511 462.145)" fill="#4d5c75"/>
    <rect id="Rectangle_417" data-name="Rectangle 417" width="5.059" height="5.137" transform="translate(285.511 455.709)" fill="#4d5c75"/>
    <path id="Path_205" data-name="Path 205" d="M122.944,261.507h-.806v24.484h32.232v-.736H122.944Z" transform="translate(137.391 193.319)" fill="#93aabe"/>
    <rect id="Rectangle_418" data-name="Rectangle 418" width="0.447" height="27.377" transform="translate(220.242 454.826)" fill="#93aabe"/>
    <rect id="Rectangle_419" data-name="Rectangle 419" width="0.447" height="27.377" transform="translate(236.723 454.826)" fill="#93aabe"/>
    <rect id="Rectangle_420" data-name="Rectangle 420" width="19.524" height="2.068" transform="translate(218.945 452.756)" fill="#d23f4f"/>
    <rect id="Rectangle_421" data-name="Rectangle 421" width="144.848" height="4.918" transform="translate(156.324 402.681)" fill="#243854"/>
    <path id="Path_206" data-name="Path 206" d="M64.149,289.675h25.71a4.4,4.4,0,0,0-2.362-2.853,4.987,4.987,0,0,0-3.6-.05c.218-.07.508-.51.658-.7a3.014,3.014,0,0,0,.736-1.54,2.8,2.8,0,0,0-.46-1.95,2.867,2.867,0,0,0-2.725-1.127c-.05.006-.1.014-.145.022a2.363,2.363,0,0,0-.566.17,6.275,6.275,0,0,0-2.089,1.643c-.112.128-.226.259-.326.4a9.483,9.483,0,0,0,2.067-2.786c1.448-3.417-1.62-8.381-5.439-6.976A8.179,8.179,0,0,0,72,277.941c3.057-5.21-2.008-8.376-3.8-3.687,1.11-3.866-.552-7.91-3.9-5.642-.047.022-.092.047-.142.07Z" transform="translate(33.643 204.858)" fill="#6dc2c6"/>
    <path id="Path_207" data-name="Path 207" d="M64.149,284.3H79.3A2.584,2.584,0,0,0,77.9,282.62a2.933,2.933,0,0,0-2.123-.028,1.761,1.761,0,0,0-.806-2.15,2.294,2.294,0,0,0-2.086.335,2.828,2.828,0,0,0,1.213-1.646c.853-2.014-.951-4.94-3.2-4.111a4.814,4.814,0,0,0-2.125,2.371c1.8-3.071-1.188-4.937-2.248-2.173,1.035-3.023-.954-4.792-2.379-4.114Z" transform="translate(33.643 210.231)" fill="#6dc2c6"/>
    <path id="Path_208" data-name="Path 208" d="M70.419,270.562a1.32,1.32,0,0,1-1,.363,2.206,2.206,0,0,1,.48-1.152,1.343,1.343,0,0,1,.993-.36,2.177,2.177,0,0,1-.477,1.149" transform="translate(43.078 207.46)" fill="#6dc2c6"/>
    <path id="Path_209" data-name="Path 209" d="M66.232,272.487a1.689,1.689,0,0,1-.957.809,2.667,2.667,0,0,1,.142-1.445,1.689,1.689,0,0,1,.957-.809,2.638,2.638,0,0,1-.142,1.445" transform="translate(35.582 210.379)" fill="#6dc2c6"/>
    <path id="Path_210" data-name="Path 210" d="M70.061,270.142a3.249,3.249,0,0,1-.231,1.757,2.643,2.643,0,0,1-.853-1.42,3.262,3.262,0,0,1,.229-1.757,2.653,2.653,0,0,1,.856,1.42" transform="translate(42.201 206.228)" fill="#6dc2c6"/>
    <path id="Path_211" data-name="Path 211" d="M154.239,292.913l-.647-9.34,5.191-5.987-.319-.253-3.063,2.609-.445-2.609-.483.125.085,3.252-1.248,1.207-.474-9.547,2.541-3.132L155.1,269l-2.632,2.095-.17-4.987h-.686l-.455,6.131-.663,6.1-3.428-3.7-.324.21,1.25,1.961-2.176-.033v.362l2.379.365,2.337,3.647-.533,11.764Z" transform="translate(179.745 201.547)" fill="#875060"/>
    <path id="Path_212" data-name="Path 212" d="M140.894,283.161a7.424,7.424,0,0,1,.538-3.419,3.6,3.6,0,0,1,2.608-2.122,1.966,1.966,0,0,1,1.827.627,14.627,14.627,0,0,1-3.012-5.4,6.64,6.64,0,0,1,1.085-5.888,6.05,6.05,0,0,1,5.436-1.9,8.515,8.515,0,0,1,5.082,2.965c-.142-3.121-.865-6.267-.29-9.341s3.023-6.142,6.158-6.005c2.123.095,3.91,1.609,5.263,3.241a21.662,21.662,0,0,1,4.895,12.024,15.176,15.176,0,0,1,2.733-3.1,5.1,5.1,0,0,1,3.857-1.182c2.248.365,3.679,2.65,4.226,4.85a13.22,13.22,0,0,1-.237,7.171c-1.227,3.815-4.1,6.842-6.889,9.726a2.856,2.856,0,0,1,3.517,1.45c.84,1.7.036,3.659-1.132,5.015a11.553,11.553,0,0,1-3.631,2.633c-7.553,3.774-16.74,3.227-24.363-.059a12.944,12.944,0,0,1-6.306-5.935l-.017-.028a11.854,11.854,0,0,1-1.347-5.324" transform="translate(170.932 177.517)" fill="#6dc2c6"/>
    <path id="Path_213" data-name="Path 213" d="M150.16,270.038c.354-.4,1.395-.566,1.378.178.3-2.3,3.319-1.428,1.913.767,2.315-2.4,4.368.667,1.367,2.036,2.546.05,1.13,3.67-1.107,2.092a.857.857,0,0,1-.647,1.573c-2.588-.424-5.235-4.538-2.9-6.646" transform="translate(185.918 206.475)" fill="#699ba0"/>
    <path id="Path_214" data-name="Path 214" d="M164.474,279.287a4.139,4.139,0,0,0,.262-1.9,1.975,1.975,0,0,0-1.046-1.54,1.09,1.09,0,0,0-1.074.039,8.118,8.118,0,0,0,2.468-2.393,3.675,3.675,0,0,0,.368-3.3,3.342,3.342,0,0,0-2.585-1.871,4.729,4.729,0,0,0-3.177.761c.575-1.637,1.464-3.191,1.651-4.917s-.622-3.749-2.312-4.172a4.319,4.319,0,0,0-3.319.887,12.014,12.014,0,0,0-4.53,5.615,8.44,8.44,0,0,0-.957-2.081,2.84,2.84,0,0,0-1.863-1.247,3.354,3.354,0,0,0-3.026,1.911,7.3,7.3,0,0,0-1.021,3.852c.039,2.223,1.082,4.29,2.1,6.267a1.587,1.587,0,0,0-2.1.212,2.6,2.6,0,0,0-.2,2.845,6.383,6.383,0,0,0,1.509,1.978,16.259,16.259,0,0,0,12.964,3.843,7.2,7.2,0,0,0,4.306-2.15l.014-.011a6.6,6.6,0,0,0,1.57-2.619" transform="translate(176.128 190.454)" fill="#9bd5d7"/>
    <path id="Path_215" data-name="Path 215" d="M154.434,264.745a2.658,2.658,0,0,0-.176,1.751,2.236,2.236,0,0,0,1.57-2.837,2.672,2.672,0,0,0-1.395,1.085" transform="translate(194.724 197.172)" fill="#699ba0"/>
    <path id="Path_216" data-name="Path 216" d="M156.671,264.645a3.661,3.661,0,0,0-2.287.82,3.1,3.1,0,0,0,4.463.259,3.685,3.685,0,0,0-2.175-1.079" transform="translate(195.084 198.926)" fill="#699ba0"/>
    <path id="Path_217" data-name="Path 217" d="M146.119,270.81a.512.512,0,1,0-.943-.008,1.423,1.423,0,0,0,.943.008" transform="translate(178.61 208.598)" fill="#699ba0"/>
    <path id="Path_218" data-name="Path 218" d="M145.674,270.517a1.942,1.942,0,0,0,1.23.407,1.95,1.95,0,0,0-.549-1.169,1.972,1.972,0,0,0-1.23-.41,1.962,1.962,0,0,0,.549,1.172" transform="translate(178.519 207.343)" fill="#699ba0"/>
    <path id="Path_219" data-name="Path 219" d="M145.971,261.612a2.706,2.706,0,0,0,1.632.675,2.236,2.236,0,0,0-2.268-2.318,2.649,2.649,0,0,0,.636,1.643" transform="translate(178.894 190.568)" fill="#90bdb8"/>
    <path id="Path_220" data-name="Path 220" d="M151.558,262.433a1.839,1.839,0,0,0-.881.851,1.869,1.869,0,0,0,1.224.047.665.665,0,1,0-.343-.9" transform="translate(188.452 194.823)" fill="#90bdb8"/>
    <path id="Path_221" data-name="Path 221" d="M146.508,260.971a3.628,3.628,0,0,0,.125,2.418,3.068,3.068,0,0,0,1.542-4.178,3.679,3.679,0,0,0-1.668,1.76" transform="translate(180.7 189.212)" fill="#90bdb8"/>
    <path id="Path_222" data-name="Path 222" d="M151.35,273.313a2.649,2.649,0,0,0,.664.008,1.257,1.257,0,0,0,.817-.416.837.837,0,0,0,.167-.778c-.134-.377-.625-.287-.848-.566a.737.737,0,0,1-.1-.566,1.6,1.6,0,0,0,.025-.586.394.394,0,0,0-.424-.324c-.148.031-.237.173-.332.27a.306.306,0,0,1-.223.117c-.365-.008-.452-.547-.831-.483-.4.073-.625.488-.736.84a1.869,1.869,0,0,0,.324,1.785,2.281,2.281,0,0,0,1.495.7" transform="translate(186.231 208.49)" fill="#90bdb8"/>
    <path id="Path_223" data-name="Path 223" d="M84.617,288.1l-.465-6.728,3.737-4.309-.229-.183-2.2,1.877-.324-1.877-.349.087.061,2.345-.9.866-.341-6.872,1.829-2.258-.2-.172-1.9,1.509-.123-3.6h-.494l-.325,4.421-.479,4.391-2.469-2.664-.232.15.9,1.411-1.57-.022v.262l1.714.261,1.685,2.626L81.56,288.1Z" transform="translate(59.401 206.357)" fill="#875060"/>
    <path id="Path_224" data-name="Path 224" d="M75.006,281.078a5.366,5.366,0,0,1,.388-2.466,2.578,2.578,0,0,1,1.877-1.523,1.406,1.406,0,0,1,1.316.449,10.471,10.471,0,0,1-2.167-3.888,4.777,4.777,0,0,1,.781-4.242,4.352,4.352,0,0,1,3.913-1.364,6.109,6.109,0,0,1,3.659,2.131c-.1-2.245-.622-4.513-.209-6.724s2.178-4.424,4.435-4.326a5.6,5.6,0,0,1,3.793,2.334,15.624,15.624,0,0,1,3.523,8.66,10.6,10.6,0,0,1,1.969-2.231,3.666,3.666,0,0,1,2.778-.851c1.62.262,2.65,1.9,3.043,3.492a9.471,9.471,0,0,1-.173,5.163c-.881,2.747-2.951,4.928-4.959,7.006a2.055,2.055,0,0,1,2.533,1.043,3.389,3.389,0,0,1-.814,3.612,8.272,8.272,0,0,1-2.616,1.9c-5.439,2.717-12.057,2.326-17.544-.042a9.326,9.326,0,0,1-4.543-4.273l-.014-.022a8.54,8.54,0,0,1-.968-3.835" transform="translate(53.056 189.053)" fill="#6dc2c6"/>
    <path id="Path_225" data-name="Path 225" d="M81.68,271.628c.254-.293,1-.41.99.125.22-1.654,2.39-1.026,1.378.552,1.668-1.724,3.146.483.987,1.467,1.835.036.809,2.644-.8,1.506a.619.619,0,0,1-.466,1.135c-1.869-.3-3.774-3.269-2.092-4.786" transform="translate(63.847 209.907)" fill="#699ba0"/>
    <path id="Path_226" data-name="Path 226" d="M91.989,278.289a3,3,0,0,0,.187-1.372,1.444,1.444,0,0,0-.75-1.113.785.785,0,0,0-.773.033,5.867,5.867,0,0,0,1.774-1.721,2.651,2.651,0,0,0,.268-2.385,2.418,2.418,0,0,0-1.863-1.344,3.426,3.426,0,0,0-2.29.547,16.226,16.226,0,0,0,1.191-3.539,2.711,2.711,0,0,0-1.668-3.007,3.109,3.109,0,0,0-2.39.639,8.737,8.737,0,0,0-3.263,4.041,5.724,5.724,0,0,0-.686-1.495,2.023,2.023,0,0,0-1.342-.9A2.416,2.416,0,0,0,78.2,268.05a5.321,5.321,0,0,0-.734,2.772,10.506,10.506,0,0,0,1.514,4.513,1.144,1.144,0,0,0-1.514.156,1.873,1.873,0,0,0-.148,2.047,4.606,4.606,0,0,0,1.091,1.425,11.7,11.7,0,0,0,9.335,2.767,5.189,5.189,0,0,0,3.1-1.548l.008-.008a4.779,4.779,0,0,0,1.132-1.885" transform="translate(56.796 198.368)" fill="#9bd5d7"/>
    <path id="Path_227" data-name="Path 227" d="M84.757,267.815a1.9,1.9,0,0,0-.126,1.261,1.61,1.61,0,0,0,1.13-2.042,1.915,1.915,0,0,0-1,.781" transform="translate(70.189 203.208)" fill="#699ba0"/>
    <path id="Path_228" data-name="Path 228" d="M86.369,267.742a2.664,2.664,0,0,0-1.648.594,2.237,2.237,0,0,0,3.213.187,2.665,2.665,0,0,0-1.565-.781" transform="translate(70.448 204.47)" fill="#699ba0"/>
    <path id="Path_229" data-name="Path 229" d="M78.77,272.182a1.036,1.036,0,0,0,.474-.485.867.867,0,1,0-.474.485" transform="translate(58.583 211.437)" fill="#699ba0"/>
    <path id="Path_230" data-name="Path 230" d="M78.449,271.973a1.421,1.421,0,0,0,.887.293,1.428,1.428,0,0,0-.4-.842,1.413,1.413,0,0,0-.887-.3,1.413,1.413,0,0,0,.4.845" transform="translate(58.519 210.533)" fill="#699ba0"/>
    <path id="Path_231" data-name="Path 231" d="M78.661,265.558a1.94,1.94,0,0,0,1.174.488,1.607,1.607,0,0,0-1.632-1.671,1.9,1.9,0,0,0,.457,1.183" transform="translate(58.789 198.451)" fill="#90bdb8"/>
    <path id="Path_232" data-name="Path 232" d="M82.687,266.149a1.34,1.34,0,0,0-.636.611,1.126,1.126,0,1,0,.636-.611" transform="translate(65.671 201.516)" fill="#90bdb8"/>
    <path id="Path_233" data-name="Path 233" d="M79.047,265.1a2.62,2.62,0,0,0,.092,1.74,2.208,2.208,0,0,0,1.11-3.007,2.633,2.633,0,0,0-1.2,1.266" transform="translate(60.09 197.476)" fill="#90bdb8"/>
    <path id="Path_234" data-name="Path 234" d="M82.536,273.982a1.848,1.848,0,0,0,.48.006.919.919,0,0,0,.589-.293.615.615,0,0,0,.12-.564c-.1-.271-.449-.209-.611-.41a.526.526,0,0,1-.073-.4,1.162,1.162,0,0,0,.02-.427.288.288,0,0,0-.307-.231c-.1.022-.17.123-.237.2a.233.233,0,0,1-.162.081c-.262-.006-.324-.4-.6-.346s-.449.351-.527.6a1.34,1.34,0,0,0,.231,1.286,1.612,1.612,0,0,0,1.077.5" transform="translate(64.073 211.36)" fill="#90bdb8"/>
    <path id="Path_235" data-name="Path 235" d="M74.857,281.579H71.328l.666-9.138h2.193Z" transform="translate(46.487 212.881)" fill="#243854"/>
    <rect id="Rectangle_422" data-name="Rectangle 422" width="1.155" height="39.543" transform="translate(119 454.916)" fill="#243854"/>
    <path id="Path_236" data-name="Path 236" d="M75.81,265.759H72.166l-1.339-6.578h6.321Z" transform="translate(45.591 189.158)" fill="#243854"/>
    <path id="Path_237" data-name="Path 237" d="M74.383,263.756H72.089l-.841-4.137h3.976Z" transform="translate(46.343 189.941)" fill="#fff"/>
    <path id="Path_238" data-name="Path 238" d="M75.81,258.582H72.166l-1.339,1.672h6.321Z" transform="translate(45.591 188.087)" fill="#243854"/>
    <path id="Path_239" data-name="Path 239" d="M75.614,261.976H71.43a.34.34,0,1,1,0-.681h4.184a.34.34,0,0,1,0,.681" transform="translate(46.061 192.941)" fill="#243854"/>
    <path id="Path_240" data-name="Path 240" d="M74.055,273H71.77a.342.342,0,0,1,0-.683h2.284a.342.342,0,0,1,0,.683" transform="translate(46.669 212.662)" fill="#243854"/>
    <path id="Path_241" data-name="Path 241" d="M73.591,259.215a.993.993,0,1,1-.993-.987.989.989,0,0,1,.993.987" transform="translate(46.982 187.453)" fill="#243854"/>
    <path id="Path_242" data-name="Path 242" d="M141.635,281.579h-3.529l.667-9.138h2.191Z" transform="translate(165.961 212.881)" fill="#243854"/>
    <rect id="Rectangle_423" data-name="Rectangle 423" width="1.153" height="39.543" transform="translate(305.253 454.916)" fill="#243854"/>
    <path id="Path_243" data-name="Path 243" d="M142.587,265.759h-3.643l-1.339-6.578h6.32Z" transform="translate(165.065 189.158)" fill="#243854"/>
    <path id="Path_244" data-name="Path 244" d="M141.16,263.756h-2.294l-.841-4.137H142Z" transform="translate(165.816 189.941)" fill="#fff"/>
    <path id="Path_245" data-name="Path 245" d="M142.587,258.582h-3.643l-1.339,1.672h6.32Z" transform="translate(165.065 188.087)" fill="#243854"/>
    <path id="Path_246" data-name="Path 246" d="M142.394,261.976H138.21a.34.34,0,1,1,0-.681h4.184a.34.34,0,1,1,0,.681" transform="translate(165.533 192.941)" fill="#243854"/>
    <path id="Path_247" data-name="Path 247" d="M140.833,273h-2.284a.342.342,0,0,1,0-.683h2.284a.342.342,0,0,1,0,.683" transform="translate(166.143 212.662)" fill="#243854"/>
    <path id="Path_248" data-name="Path 248" d="M140.37,259.215a.993.993,0,1,1-.993-.987.992.992,0,0,1,.993.987" transform="translate(166.458 187.453)" fill="#243854"/>
    <path id="Path_249" data-name="Path 249" d="M138.929,285.887c3.545-11.257,18.062-13.034,22.851-2.162,5.994-1.643,10.816.494,14.752,4.864,1.933-2.44,6.515-3.4,9.927-1.4,2.744-8.719,13.993-10.094,17.705-1.676,5.626-1.542,9.924,1.213,13.276,6.144H120.515c5.651-4.792,11.617-7.715,18.414-5.768" transform="translate(134.488 220.042)" fill="#6dc2c6"/>
    <path id="Path_250" data-name="Path 250" d="M132,288.358s4.267-3.835,12.922-2.876a8.923,8.923,0,0,1,9-2.4c3.188-7.232,12.847-6.052,15.2,1.434,4.521-1.294,8.49.653,12.25,3.838Z" transform="translate(155.043 223.258)" fill="#9bd5d7"/>
    <path id="Path_251" data-name="Path 251" d="M116.31,286.22c2.4-3.528,6.209-3.548,10.236-2.443,2.658-6.027,12.392-5.712,14.358.533,7.288-2.5,10.482,1.91,10.482,1.91Z" transform="translate(126.965 225.396)" fill="#9bd5d7"/>
    <path id="Path_252" data-name="Path 252" d="M131.146,276.992a2.956,2.956,0,0,0,1.512,1.252A2.495,2.495,0,0,0,131,275.037a2.961,2.961,0,0,0,.142,1.955" transform="translate(153.065 217.527)" fill="#699ba0"/>
    <path id="Path_253" data-name="Path 253" d="M132.544,276.1a4.086,4.086,0,0,0-.658,2.622,3.428,3.428,0,0,0,3-3.952,4.068,4.068,0,0,0-2.346,1.33" transform="translate(154.805 217.051)" fill="#699ba0"/>
    <path id="Path_254" data-name="Path 254" d="M146.819,280.786a2.971,2.971,0,0,0,1.219,1.542,2.5,2.5,0,0,0-.945-3.484,2.947,2.947,0,0,0-.273,1.941" transform="translate(181.421 224.34)" fill="#90bdb8"/>
    <path id="Path_255" data-name="Path 255" d="M148.738,279.821a4.092,4.092,0,0,0-1.188,2.424,3.431,3.431,0,0,0,3.762-3.238,4.074,4.074,0,0,0-2.574.814" transform="translate(182.857 224.625)" fill="#90bdb8"/>
    <path id="Path_256" data-name="Path 256" d="M112.057,284.774c-2.558-8.122-13.034-9.4-16.492-1.556-4.323-1.191-7.8.357-10.64,3.509a5.868,5.868,0,0,0-7.162-1.015c-1.983-6.292-10.1-7.28-12.777-1.2-4.058-1.116-7.16.87-9.578,4.432h69.937c-4.078-3.458-8.381-5.567-13.287-4.164" transform="translate(18.002 222.758)" fill="#6dc2c6"/>
    <path id="Path_257" data-name="Path 257" d="M95.045,286.559s-3.076-2.77-9.318-2.078a6.45,6.45,0,0,0-6.5-1.727c-2.3-5.216-9.268-4.368-10.972,1.035-3.26-.934-6.122.474-8.839,2.77Z" transform="translate(25.177 225.08)" fill="#9bd5d7"/>
    <path id="Path_258" data-name="Path 258" d="M99.75,285.015c-1.732-2.547-4.479-2.56-7.386-1.763-1.919-4.345-8.942-4.119-10.362.382-5.257-1.807-7.561,1.381-7.561,1.381Z" transform="translate(52.058 226.624)" fill="#9bd5d7"/>
    <path id="Path_259" data-name="Path 259" d="M73.675,278.358a2.12,2.12,0,0,1-1.091.9,1.8,1.8,0,0,1,1.191-2.312,2.138,2.138,0,0,1-.1,1.411" transform="translate(48.597 220.944)" fill="#699ba0"/>
    <path id="Path_260" data-name="Path 260" d="M73.207,277.717a2.937,2.937,0,0,1,.471,1.885,2.468,2.468,0,0,1-2.164-2.848,2.928,2.928,0,0,1,1.693.962" transform="translate(46.8 220.6)" fill="#699ba0"/>
    <path id="Path_261" data-name="Path 261" d="M62.258,281.1a2.143,2.143,0,0,1-.879,1.11,1.8,1.8,0,0,1,.683-2.513,2.136,2.136,0,0,1,.2,1.4" transform="translate(28.242 225.859)" fill="#90bdb8"/>
    <path id="Path_262" data-name="Path 262" d="M61.857,280.4a2.933,2.933,0,0,1,.856,1.749A2.467,2.467,0,0,1,60,279.811a2.951,2.951,0,0,1,1.855.589" transform="translate(26.223 226.065)" fill="#90bdb8"/>
    <path id="Path_263" data-name="Path 263" d="M110.588,253.23a7.074,7.074,0,0,0-2.823.622,3.963,3.963,0,0,1-4.41-.851,10.918,10.918,0,0,0-17.145.973c-1.091,1.727-3.021,1.565-4.027,1.565a4.967,4.967,0,0,0-4.926,5.012v.014h33.33Z" transform="translate(57.096 171.485)" fill="#d3dde6"/>
    <path id="Path_264" data-name="Path 264" d="M86.573,254.318l-.3-.265a13.016,13.016,0,0,1,4.583-3.1l.142.382a12.913,12.913,0,0,0-4.421,2.984" transform="translate(73.218 174.436)" fill="#b5c9d5"/>
    <path id="Path_265" data-name="Path 265" d="M83.345,254.122c-.008-.02-.856-1.871-4.064-2.251l.045-.4c3.456.4,4.351,2.407,4.387,2.488Z" transform="translate(60.716 175.357)" fill="#b5c9d5"/>
    <path id="Path_266" data-name="Path 266" d="M64.058,255.875h56.3a5.409,5.409,0,0,0-5.35-4.962,5.283,5.283,0,0,0-2.99.923,1.229,1.229,0,0,1-1.969-.63,8.045,8.045,0,0,0-7.651-5.693,7.75,7.75,0,0,0-1.6.165c-1.883.3-2.848-.563-3.121-1.885a14.543,14.543,0,0,0-28.112-1.526,2.028,2.028,0,0,1-3.177.929,10.081,10.081,0,0,0-2.337-1.238Z" transform="translate(33.48 140.768)" fill="#fff"/>
    <path id="Path_267" data-name="Path 267" d="M70.617,242.635a16.1,16.1,0,0,0-5.9-6.342l.209-.351a16.455,16.455,0,0,1,6.038,6.5Z" transform="translate(34.661 147.579)" fill="#b5c9d5"/>
    <path id="Path_268" data-name="Path 268" d="M74.982,241.995l-.338-.223a10.282,10.282,0,0,1,6.967-4.845l.045.407a10.075,10.075,0,0,0-6.674,4.661" transform="translate(52.419 149.343)" fill="#b5c9d5"/>
    <path id="Path_269" data-name="Path 269" d="M73.124,241.011l-.282-.287a6.635,6.635,0,0,1,5.185-2.106,5.205,5.205,0,0,1,3.9,2.131l-.324.243A4.822,4.822,0,0,0,78,239.025a6.281,6.281,0,0,0-4.873,1.986" transform="translate(49.195 152.341)" fill="#b5c9d5"/>
    <path id="Path_270" data-name="Path 270" d="M178.752,249.448a7.074,7.074,0,0,0-2.823.622,3.961,3.961,0,0,1-4.41-.851,10.918,10.918,0,0,0-17.145.973c-1.091,1.727-3.021,1.565-4.03,1.565a4.966,4.966,0,0,0-4.923,5.009v.017h33.33Z" transform="translate(179.05 164.719)" fill="#fff"/>
    <path id="Path_271" data-name="Path 271" d="M154.734,250.535l-.3-.268a13.034,13.034,0,0,1,4.58-3.1l.142.379a13.013,13.013,0,0,0-4.421,2.984" transform="translate(195.172 167.671)" fill="#b5c9d5"/>
    <path id="Path_272" data-name="Path 272" d="M151.509,250.34c-.008-.02-.856-1.871-4.064-2.248l.045-.407c3.456.407,4.351,2.407,4.387,2.491Z" transform="translate(182.669 168.591)" fill="#b5c9d5"/>
    <rect id="Rectangle_424" data-name="Rectangle 424" width="25.038" height="13.901" transform="matrix(0.595, -0.804, 0.804, 0.595, 261.698, 223.901)" fill="#6dc2c6"/>
    <path id="Path_273" data-name="Path 273" d="M127.494,207.973a1.376,1.376,0,0,1,.028-1.86l35.628-50.656c1.342-1.81,3.447-2.524,4.7-1.6l10.4,7.7c1.255.932,1.183,3.152-.159,4.965l-38.1,48.818c-.522.664-1.305.915-1.774.566Z" transform="translate(146.359 0)" fill="#221e1d"/>
    <path id="Path_274" data-name="Path 274" d="M208.485,282.071a67.358,67.358,0,1,0-94.23,14.01,67.334,67.334,0,0,0,94.23-14.01m-12.5-9.26a51.8,51.8,0,1,1-10.78-72.453,51.817,51.817,0,0,1,10.78,72.453" transform="translate(74.515 37.874)" fill="#221e1d"/>
  </g>
</svg>
